<svg width="16" height="16" viewBox="0 0 16 16" fill="none" xmlns="http://www.w3.org/2000/svg">
<path d="M11.9997 14.6666C11.8827 14.6667 11.7677 14.6359 11.6663 14.5775L7.99967 12.4629L4.33301 14.5775C4.23164 14.6359 4.11668 14.6666 3.99968 14.6666C3.88268 14.6665 3.76775 14.6357 3.66643 14.5772C3.56511 14.5187 3.48096 14.4345 3.42244 14.3332C3.36391 14.2319 3.33307 14.117 3.33301 14V3.33331C3.33359 2.80306 3.54449 2.29469 3.91943 1.91974C4.29438 1.54479 4.80275 1.33389 5.33301 1.33331H10.6663C11.1966 1.33389 11.705 1.54479 12.0799 1.91974C12.4549 2.29469 12.6658 2.80306 12.6663 3.33331V14C12.6662 14.1768 12.5959 14.3462 12.4709 14.4712C12.3459 14.5962 12.1764 14.6665 11.9997 14.6666Z" fill="#F3F4F6"/>
</svg>
