<svg width="15" height="15" viewBox="0 0 15 15" fill="none" xmlns="http://www.w3.org/2000/svg">
<path d="M7.94692 7.11108L11.6803 3.38368C11.7918 3.27209 11.8545 3.12075 11.8545 2.96294C11.8545 2.80513 11.7918 2.65378 11.6803 2.5422C11.5687 2.43061 11.4173 2.36792 11.2595 2.36792C11.1017 2.36792 10.9504 2.43061 10.8388 2.5422L7.11136 6.27553L3.38396 2.5422C3.27237 2.43061 3.12102 2.36792 2.96322 2.36792C2.80541 2.36792 2.65406 2.43061 2.54248 2.5422C2.43089 2.65378 2.3682 2.80513 2.3682 2.96294C2.3682 3.12075 2.43089 3.27209 2.54248 3.38368L6.27581 7.11108L2.54248 10.8385C2.48693 10.8936 2.44285 10.9591 2.41276 11.0313C2.38268 11.1035 2.36719 11.181 2.36719 11.2592C2.36719 11.3375 2.38268 11.4149 2.41276 11.4871C2.44285 11.5593 2.48693 11.6249 2.54248 11.68C2.59756 11.7355 2.66311 11.7796 2.73532 11.8097C2.80753 11.8398 2.88499 11.8553 2.96322 11.8553C3.04145 11.8553 3.1189 11.8398 3.19111 11.8097C3.26333 11.7796 3.32887 11.7355 3.38396 11.68L7.11136 7.94664L10.8388 11.68C10.8939 11.7355 10.9594 11.7796 11.0316 11.8097C11.1038 11.8398 11.1813 11.8553 11.2595 11.8553C11.3377 11.8553 11.4152 11.8398 11.4874 11.8097C11.5596 11.7796 11.6252 11.7355 11.6803 11.68C11.7358 11.6249 11.7799 11.5593 11.81 11.4871C11.8401 11.4149 11.8555 11.3375 11.8555 11.2592C11.8555 11.181 11.8401 11.1035 11.81 11.0313C11.7799 10.9591 11.7358 10.8936 11.6803 10.8385L7.94692 7.11108Z" fill="#6C727F"/>
</svg>
