<svg width="24" height="24" viewBox="0 0 24 24" fill="none" xmlns="http://www.w3.org/2000/svg">
<path d="M8.85435 21.5708C10.8952 22.2539 13.1029 22.2541 15.1438 21.5715C14.8846 21.6547 14.6069 21.5121 14.5236 21.2528C14.5073 21.2021 14.4994 21.149 14.5 21.0957C14.5 20.7583 14.5125 19.6833 14.5125 18.3457C14.5668 17.6603 14.3204 16.9852 13.8375 16.4957C16.0625 16.2457 18.4 15.3957 18.4 11.5582C18.4164 10.564 18.0494 9.60158 17.375 8.87075C17.6808 8.00697 17.645 7.05903 17.275 6.22075C17.275 6.22075 16.4375 5.94575 14.525 7.24575C12.8888 6.79571 11.1613 6.79571 9.52505 7.24575C7.61252 5.95827 6.77505 6.22075 6.77505 6.22075C6.40507 7.05903 6.3693 8.00697 6.67505 8.87075C6.00272 9.60282 5.63598 10.5644 5.65005 11.5582C5.65005 15.3832 7.97505 16.2457 10.2 16.4957C9.83236 16.8495 9.60579 17.3249 9.56253 17.8333C8.53271 18.4104 7.23004 18.0433 6.65295 17.0135C6.65198 17.0118 6.65101 17.01 6.65004 17.0083C6.3354 16.4363 5.76153 16.0537 5.11251 15.9833C4.27504 15.9958 4.77504 16.4583 5.12502 16.6458C5.57627 17.0265 5.92807 17.5112 6.15004 18.0583C6.35004 18.6208 7.00004 19.6958 9.51253 19.2333C9.51253 20.0708 9.52503 20.8583 9.52503 21.0958C9.52503 21.3548 9.33964 21.647 8.85435 21.5708Z" fill="white" fill-opacity="0.2"/>
<path d="M12 2.08301C6.47717 2.08301 2 6.56018 2 12.083C2 16.506 4.87469 20.2517 8.85516 21.5708C9.33978 21.6464 9.52502 21.3546 9.52502 21.0958C9.52502 20.8583 9.51251 20.0708 9.51251 19.2333C7 19.6958 6.34998 18.6208 6.15002 18.0583C5.92804 17.5112 5.57623 17.0265 5.125 16.6458C4.77502 16.4583 4.27502 15.9958 5.11249 15.9833C5.76148 16.0537 6.33539 16.4363 6.65003 17.0083C6.65101 17.0101 6.65198 17.0118 6.65296 17.0135C7.23005 18.0433 8.53266 18.4103 9.56251 17.8332C9.60578 17.3249 9.83235 16.8495 10.2 16.4958C7.97504 16.2458 5.65003 15.3832 5.65003 11.5583C5.63593 10.5644 6.00269 9.60284 6.67499 8.87078C6.36926 8.00696 6.40503 7.05902 6.77502 6.22076C6.77502 6.22076 7.61248 5.95825 9.52502 7.24578C11.1613 6.79571 12.8887 6.79571 14.525 7.24578C16.4375 5.94573 17.275 6.22076 17.275 6.22076C17.645 7.05902 17.6807 8.00695 17.375 8.87078C18.0493 9.60161 18.4164 10.564 18.4 11.5583C18.4 15.3957 16.0625 16.2458 13.8375 16.4958C14.3204 16.9852 14.5668 17.6603 14.5125 18.3458C14.5125 19.6833 14.5 20.7583 14.5 21.0958C14.4993 21.149 14.5073 21.2021 14.5236 21.2528C14.6067 21.5116 14.8837 21.654 15.1426 21.5716C19.1243 20.2532 22 16.5068 22 12.083C22 6.56018 17.5228 2.08301 12 2.08301Z" fill="white"/>
</svg>
