<svg width="22" height="22" viewBox="0 0 22 22" fill="none" xmlns="http://www.w3.org/2000/svg">
<g clip-path="url(#clip0_1953_63951)">
<path fill-rule="evenodd" clip-rule="evenodd" d="M2.35985 13.5314C2.85878 14.0275 2.85877 14.8317 2.35984 15.3278L2.33428 15.3532C1.83535 15.8492 1.02643 15.8492 0.527507 15.3531C0.0285846 14.8571 0.0285922 14.0528 0.527525 13.5568L0.553076 13.5314C1.05201 13.0353 1.86093 13.0354 2.35985 13.5314Z" fill="#E4E4E7" fill-opacity="0.2"/>
<path fill-rule="evenodd" clip-rule="evenodd" d="M8.36604 13.914C8.86407 14.411 8.86261 15.2152 8.36278 15.7104L4.82387 19.2162C4.32404 19.7113 3.51512 19.7098 3.0171 19.2129C2.51907 18.716 2.52053 17.9117 3.02036 17.4166L6.55927 13.9108C7.0591 13.4156 7.86802 13.4171 8.36604 13.914Z" fill="#E4E4E7" fill-opacity="0.5"/>
<path fill-rule="evenodd" clip-rule="evenodd" d="M13.1688 19.949C13.5602 19.3653 14.3534 19.2076 14.9405 19.5967L15.0172 19.6475C15.6042 20.0366 15.7629 20.8253 15.3715 21.409C14.9801 21.9927 14.1869 22.1504 13.5998 21.7613L13.5231 21.7105C12.9361 21.3213 12.7774 20.5327 13.1688 19.949Z" fill="#E4E4E7" fill-opacity="0.2"/>
<path fill-rule="evenodd" clip-rule="evenodd" d="M21.6001 13.4552C22.0991 13.9512 22.0991 14.7555 21.6001 15.2515L19.8626 16.979C19.3637 17.475 18.5548 17.475 18.0558 16.979C17.5569 16.4829 17.5569 15.6787 18.0558 15.1826L19.7934 13.4552C20.2923 12.9591 21.1012 12.9591 21.6001 13.4552Z" fill="#E4E4E7" fill-opacity="0.5"/>
<path fill-rule="evenodd" clip-rule="evenodd" d="M21.6262 7.06604C22.1251 7.56208 22.1251 8.36633 21.6262 8.86238L8.78644 21.628C8.28751 22.124 7.47859 22.124 6.97966 21.628C6.48074 21.1319 6.48074 20.3277 6.97966 19.8316L19.8194 7.06604C20.3183 6.56999 21.1272 6.56999 21.6262 7.06604Z" fill="#E4E4E7"/>
<path fill-rule="evenodd" clip-rule="evenodd" d="M19.1982 3.14108C19.6972 3.63713 19.6972 4.44138 19.1982 4.93742L11.8138 12.2792C11.3149 12.7753 10.5059 12.7753 10.007 12.2792C9.50808 11.7832 9.50808 10.9789 10.007 10.4829L17.3914 3.14108C17.8904 2.64503 18.6993 2.64503 19.1982 3.14108Z" fill="#E4E4E7"/>
<path fill-rule="evenodd" clip-rule="evenodd" d="M15.3007 0.650881C15.8 1.14659 15.8006 1.95085 15.302 2.44723L5.80951 11.8976C5.31092 12.394 4.502 12.3945 4.00273 11.8988C3.50347 11.4031 3.50293 10.5988 4.00152 10.1024L13.494 0.652089C13.9926 0.155708 14.8015 0.155168 15.3007 0.650881Z" fill="#E4E4E7"/>
<path fill-rule="evenodd" clip-rule="evenodd" d="M5.9003 3.67613C6.39836 4.17303 6.39697 4.97728 5.89719 5.47248L2.17942 9.15608C1.67963 9.65127 0.87071 9.64989 0.372642 9.15299C-0.125426 8.65609 -0.124034 7.85184 0.375752 7.35664L4.09352 3.67304C4.59331 3.17785 5.40223 3.17923 5.9003 3.67613Z" fill="#E4E4E7" fill-opacity="0.5"/>
<path fill-rule="evenodd" clip-rule="evenodd" d="M8.177 0C8.88259 0 9.45458 0.568691 9.45458 1.27021V1.39723C9.45458 2.09874 8.88259 2.66744 8.177 2.66744C7.47141 2.66744 6.89941 2.09874 6.89941 1.39723V1.27021C6.89941 0.568691 7.47141 0 8.177 0Z" fill="#E4E4E7" fill-opacity="0.2"/>
</g>
<defs>
<clipPath id="clip0_1953_63951">
<rect width="22" height="22" fill="white"/>
</clipPath>
</defs>
</svg>
