<svg width="24" height="24" viewBox="0 0 24 24" fill="none" xmlns="http://www.w3.org/2000/svg">
<path d="M4.90713 1.41278C5.11078 0.862408 5.88922 0.862408 6.09287 1.41278L6.93579 3.69072C6.99982 3.86376 7.13624 4.00018 7.30928 4.06421L9.58722 4.90713C10.1376 5.11078 10.1376 5.88922 9.58722 6.09287L7.30928 6.93579C7.13624 6.99982 6.99982 7.13624 6.93579 7.30928L6.09287 9.58722C5.88922 10.1376 5.11078 10.1376 4.90713 9.58722L4.06421 7.30928C4.00018 7.13624 3.86376 6.99982 3.69072 6.93579L1.41278 6.09287C0.862408 5.88922 0.862408 5.11078 1.41278 4.90713L3.69072 4.06421C3.86376 4.00018 4.00018 3.86376 4.06421 3.69072L4.90713 1.41278Z" fill="#E4E4E7"/>
<path d="M13.4887 7.72523C13.879 6.75826 15.371 6.75826 15.7613 7.72523L17.3769 11.7275C17.4996 12.0315 17.7611 12.2712 18.0928 12.3837L22.4588 13.8646C23.5137 14.2224 23.5137 15.5901 22.4588 15.9479L18.0928 17.4288C17.7611 17.5413 17.4996 17.781 17.3769 18.085L15.7613 22.0873C15.371 23.0542 13.879 23.0542 13.4887 22.0873L11.8731 18.085C11.7504 17.781 11.4889 17.5413 11.1572 17.4288L6.79116 15.9479C5.73628 15.5901 5.73628 14.2224 6.79116 13.8646L11.1572 12.3837C11.4889 12.2712 11.7504 12.0315 11.8731 11.7275L13.4887 7.72523Z" fill="#E4E4E7"/>
</svg>
