<svg width="24" height="24" viewBox="0 0 24 24" fill="none" xmlns="http://www.w3.org/2000/svg">
<path d="M19 11H13.414L14.707 9.70702C14.8926 9.5191 14.9963 9.2654 14.9954 9.0013C14.9946 8.7372 14.8893 8.48416 14.7026 8.29742C14.5158 8.11068 14.2628 8.00541 13.9987 8.00458C13.7346 8.00376 13.4809 8.10745 13.293 8.29302L10.293 11.293C10.2001 11.3858 10.1264 11.4961 10.0761 11.6174C10.0259 11.7387 10 11.8687 10 12C10 12.1314 10.0259 12.2614 10.0761 12.3827C10.1264 12.504 10.2001 12.6142 10.293 12.7071L13.293 15.7071C13.4809 15.8926 13.7346 15.9963 13.9987 15.9955C14.2628 15.9946 14.5158 15.8894 14.7026 15.7026C14.8893 15.5159 14.9946 15.2628 14.9954 14.9987C14.9962 14.7346 14.8925 14.4809 14.707 14.293L13.414 13H19C19.2652 13 19.5195 12.8947 19.7071 12.7071C19.8946 12.5196 20 12.2652 20 12C20 11.7348 19.8946 11.4804 19.7071 11.2929C19.5195 11.1054 19.2652 11 19 11Z" fill="#E4E4E7"/>
<path d="M13.4141 13L14.7071 14.293C14.8009 14.3856 14.8754 14.4959 14.9264 14.6175C14.9775 14.739 15.004 14.8695 15.0044 15.0013C15.0048 15.1332 14.9791 15.2638 14.9289 15.3857C14.8786 15.5075 14.8047 15.6183 14.7115 15.7115C14.6183 15.8047 14.5075 15.8786 14.3856 15.9288C14.2638 15.9791 14.1331 16.0048 14.0013 16.0043C13.8695 16.0039 13.739 15.9774 13.6175 15.9264C13.4959 15.8754 13.3856 15.8008 13.293 15.707L10.293 12.707C10.2001 12.6142 10.1264 12.5039 10.0762 12.3826C10.0259 12.2613 10 12.1313 10 12C10 11.8687 10.0259 11.7386 10.0762 11.6173C10.1264 11.496 10.2001 11.3858 10.293 11.2929L13.293 8.29294C13.4809 8.10738 13.7346 8.0037 13.9987 8.00453C14.2628 8.00537 14.5159 8.11066 14.7026 8.29741C14.8893 8.48415 14.9946 8.7372 14.9954 9.00129C14.9963 9.26539 14.8926 9.51909 14.707 9.707L13.4141 11H18V5C17.9991 4.20462 17.6828 3.44206 17.1204 2.87964C16.5579 2.31722 15.7954 2.00087 15 2H7C6.20462 2.00087 5.44206 2.31722 4.87964 2.87964C4.31722 3.44206 4.00087 4.20462 4 5V19C4.00087 19.7954 4.31722 20.5579 4.87964 21.1204C5.44206 21.6828 6.20462 21.9991 7 22H15C15.7954 21.9991 16.5579 21.6828 17.1204 21.1204C17.6828 20.5579 17.9991 19.7954 18 19V13H13.4141Z" fill="#E4E4E7" fill-opacity="0.2"/>
</svg>
